<svg width="22" height="21" viewBox="0 0 22 21" fill="none" xmlns="http://www.w3.org/2000/svg">
<path d="M22 10.7147C22 9.25731 20.1749 7.87615 17.3767 7.01964C18.0224 4.16763 17.7354 1.89857 16.4709 1.17211C16.1794 1.00171 15.8386 0.920988 15.4664 0.920988V1.92099C15.6726 1.92099 15.8386 1.96135 15.9776 2.03758C16.5874 2.38736 16.852 3.71919 16.6457 5.4322C16.5964 5.85372 16.5157 6.29767 16.417 6.75059C15.5381 6.53534 14.5785 6.36942 13.5695 6.2618C12.9641 5.4322 12.3363 4.67884 11.704 4.01964C13.1659 2.6609 14.5381 1.9165 15.4709 1.9165V0.916504C14.2377 0.916504 12.6233 1.79543 10.991 3.32009C9.35874 1.8044 7.74439 0.934441 6.51121 0.934441V1.93444C7.43946 1.93444 8.81614 2.67435 10.278 4.02413C9.65022 4.68332 9.02242 5.4322 8.42601 6.2618C7.41256 6.36942 6.45292 6.53534 5.57399 6.75507C5.47085 6.30664 5.39462 5.87166 5.34081 5.45462C5.13004 3.74162 5.39013 2.40978 5.99552 2.05552C6.13004 1.9748 6.30493 1.93893 6.51121 1.93893V0.938925C6.13453 0.938925 5.79372 1.01964 5.49776 1.19005C4.23767 1.9165 3.95516 4.18108 4.60538 7.02413C1.81614 7.88511 0 9.2618 0 10.7147C0 12.1721 1.82511 13.5533 4.62332 14.4098C3.97758 17.2618 4.26457 19.5309 5.52915 20.2573C5.82063 20.4277 6.16144 20.5084 6.53812 20.5084C7.7713 20.5084 9.38565 19.6295 11.0179 18.1048C12.6502 19.6205 14.2646 20.4905 15.4978 20.4905C15.8744 20.4905 16.2152 20.4098 16.5112 20.2394C17.7713 19.5129 18.0538 17.2483 17.4036 14.4053C20.1839 13.5488 22 12.1676 22 10.7147ZM16.1614 7.72368C15.9955 8.30216 15.7892 8.89857 15.5561 9.49498C15.3722 9.13624 15.1794 8.77749 14.9686 8.41875C14.7623 8.06 14.5426 7.71023 14.3229 7.36942C14.9596 7.46359 15.574 7.58018 16.1614 7.72368ZM14.1076 12.4995C13.7578 13.1048 13.3991 13.6788 13.0269 14.2125C12.3587 14.2708 11.6816 14.3022 11 14.3022C10.3229 14.3022 9.64574 14.2708 8.98206 14.217C8.60987 13.6833 8.24664 13.1138 7.89686 12.5129C7.55605 11.9255 7.24664 11.3291 6.96413 10.7282C7.24215 10.1273 7.55606 9.52637 7.89238 8.93893C8.24215 8.33355 8.6009 7.75955 8.97309 7.22592C9.64126 7.16763 10.3184 7.13624 11 7.13624C11.6771 7.13624 12.3543 7.16763 13.0179 7.22144C13.3901 7.75507 13.7534 8.32458 14.1031 8.92547C14.4439 9.51292 14.7534 10.1093 15.0359 10.7102C14.7534 11.3111 14.4439 11.912 14.1076 12.4995ZM15.5561 11.9165C15.7982 12.5174 16.0045 13.1183 16.1749 13.7013C15.5874 13.8448 14.9686 13.9658 14.3274 14.06C14.5471 13.7147 14.7668 13.3605 14.9731 12.9972C15.1794 12.6385 15.3722 12.2752 15.5561 11.9165ZM11.009 16.7013C10.5919 16.2708 10.1749 15.7909 9.76233 15.2663C10.1659 15.2842 10.5785 15.2977 10.9955 15.2977C11.417 15.2977 11.8341 15.2887 12.2422 15.2663C11.8386 15.7909 11.4215 16.2708 11.009 16.7013ZM7.67265 14.06C7.03587 13.9658 6.42152 13.8492 5.83408 13.7057C6 13.1273 6.20628 12.5309 6.43946 11.9344C6.62332 12.2932 6.81614 12.6519 7.02691 13.0107C7.23767 13.3694 7.45291 13.7192 7.67265 14.06ZM10.9865 4.72816C11.4036 5.15866 11.8206 5.63848 12.2332 6.16314C11.8296 6.1452 11.417 6.13175 11 6.13175C10.5785 6.13175 10.1614 6.14072 9.75336 6.16314C10.157 5.63848 10.574 5.15866 10.9865 4.72816ZM7.66816 7.36942C7.44843 7.71471 7.2287 8.06897 7.02242 8.4322C6.81614 8.79094 6.62332 9.14969 6.43946 9.50843C6.19731 8.90754 5.99103 8.30664 5.82063 7.72368C6.40807 7.58467 7.02691 7.46359 7.66816 7.36942ZM3.60987 12.9838C2.02242 12.3066 0.995516 11.4187 0.995516 10.7147C0.995516 10.0107 2.02242 9.1183 3.60987 8.44565C3.99552 8.27973 4.41704 8.13175 4.85202 7.99274C5.10762 8.87166 5.44395 9.78646 5.86099 10.7237C5.44843 11.6564 5.11659 12.5667 4.86547 13.4412C4.42153 13.3022 4 13.1497 3.60987 12.9838ZM6.02242 19.3918C5.41256 19.0421 5.14798 17.7102 5.35426 15.9972C5.40359 15.5757 5.48431 15.1318 5.58296 14.6788C6.46188 14.8941 7.42153 15.06 8.43049 15.1676C9.03588 15.9972 9.66368 16.7506 10.296 17.4098C8.83408 18.7685 7.46188 19.5129 6.52915 19.5129C6.32735 19.5084 6.15695 19.4681 6.02242 19.3918ZM16.6592 15.9748C16.87 17.6878 16.6099 19.0196 16.0045 19.3739C15.87 19.4546 15.6951 19.4905 15.4888 19.4905C14.5605 19.4905 13.1839 18.7506 11.722 17.4008C12.3498 16.7416 12.9776 15.9927 13.574 15.1631C14.5874 15.0555 15.5471 14.8896 16.426 14.6699C16.5291 15.1228 16.6099 15.5578 16.6592 15.9748ZM18.3857 12.9838C18 13.1497 17.5785 13.2977 17.1435 13.4367C16.8879 12.5578 16.5516 11.643 16.1345 10.7057C16.5471 9.77301 16.8789 8.86269 17.13 7.98825C17.574 8.12727 17.9955 8.27973 18.3901 8.44565C19.9776 9.12278 21.0045 10.0107 21.0045 10.7147C21 11.4187 19.9731 12.3111 18.3857 12.9838Z" fill="#61DAFB"/>
<path d="M10.9954 12.7642C12.1272 12.7642 13.0447 11.8467 13.0447 10.7149C13.0447 9.58304 12.1272 8.66553 10.9954 8.66553C9.86356 8.66553 8.94604 9.58304 8.94604 10.7149C8.94604 11.8467 9.86356 12.7642 10.9954 12.7642Z" fill="#61DAFB"/>
</svg>
