<svg width="22" height="22" viewBox="0 0 22 22" fill="none" xmlns="http://www.w3.org/2000/svg">
<path d="M15.5408 9.6809C15.5408 9.6809 15.3576 8.11628 13.683 8.11628C12.0085 8.11628 10.8616 8.33614 10.8616 9.26319C10.8616 10.1902 14.1191 10.1902 15.3576 10.5567C16.5961 10.9194 17.688 11.8684 17.1421 13.543C16.5961 15.2175 14.9215 15.4008 12.3346 15.4008C9.74765 15.4008 9.16504 13.2535 9.16504 12.4144H10.6234C10.6234 12.4144 10.4402 13.7262 12.1514 13.9424C13.8626 14.1586 15.5005 14.2832 15.7203 12.9604C16.0135 11.2125 10.1837 12.0846 9.67437 10.3734C9.24199 8.92607 9.49116 7.02434 12.4042 6.7312C15.3173 6.43807 16.9185 7.72787 16.9185 9.64426L15.5408 9.6809Z" fill="#66A060"/>
<path d="M1.46655 16.5073L4.68741 18.3651C6.30699 19.2995 8.32964 18.1306 8.32964 16.2618V7.00599H7.01785V15.8954C7.01785 16.9141 5.91492 17.5553 5.02818 17.0423L2.78201 15.7452V6.2585L10.9972 1.51699L19.2124 6.2585V15.7452L10.9972 20.4867L8.63011 19.1199L7.08381 19.7428L10.9972 22L20.5242 16.5V5.5L10.9972 0L1.47022 5.5L1.46655 16.5073Z" fill="#66A060"/>
</svg>
