<svg width="98" height="18" viewBox="0 0 98 18" fill="none" xmlns="http://www.w3.org/2000/svg">
<path d="M8.52447 1.46353C8.67415 1.00287 9.32585 1.00287 9.47553 1.46353L10.9084 5.87336C10.9753 6.07937 11.1673 6.21885 11.3839 6.21885H16.0207C16.505 6.21885 16.7064 6.83865 16.3146 7.12336L12.5633 9.84878C12.3881 9.9761 12.3148 10.2018 12.3817 10.4078L13.8145 14.8176C13.9642 15.2783 13.437 15.6613 13.0451 15.3766L9.29389 12.6512C9.11865 12.5239 8.88135 12.5239 8.70611 12.6512L4.95488 15.3766C4.56303 15.6613 4.03578 15.2783 4.18546 14.8176L5.6183 10.4078C5.68524 10.2018 5.61191 9.9761 5.43667 9.84878L1.68544 7.12336C1.29358 6.83866 1.49497 6.21885 1.97933 6.21885H6.6161C6.83272 6.21885 7.02469 6.07937 7.09163 5.87336L8.52447 1.46353Z" fill="#373AF5"/>
<path d="M28.5245 1.46353C28.6741 1.00287 29.3259 1.00287 29.4755 1.46353L30.9084 5.87336C30.9753 6.07937 31.1673 6.21885 31.3839 6.21885H36.0207C36.505 6.21885 36.7064 6.83865 36.3146 7.12336L32.5633 9.84878C32.3881 9.9761 32.3148 10.2018 32.3817 10.4078L33.8145 14.8176C33.9642 15.2783 33.437 15.6613 33.0451 15.3766L29.2939 12.6512C29.1186 12.5239 28.8814 12.5239 28.7061 12.6512L24.9549 15.3766C24.563 15.6613 24.0358 15.2783 24.1855 14.8176L25.6183 10.4078C25.6852 10.2018 25.6119 9.9761 25.4367 9.84878L21.6854 7.12336C21.2936 6.83866 21.495 6.21885 21.9793 6.21885H26.6161C26.8327 6.21885 27.0247 6.07937 27.0916 5.87336L28.5245 1.46353Z" fill="#373AF5"/>
<path d="M48.5245 1.46353C48.6741 1.00287 49.3259 1.00287 49.4755 1.46353L50.9084 5.87336C50.9753 6.07937 51.1673 6.21885 51.3839 6.21885H56.0207C56.505 6.21885 56.7064 6.83865 56.3146 7.12336L52.5633 9.84878C52.3881 9.9761 52.3148 10.2018 52.3817 10.4078L53.8145 14.8176C53.9642 15.2783 53.437 15.6613 53.0451 15.3766L49.2939 12.6512C49.1186 12.5239 48.8814 12.5239 48.7061 12.6512L44.9549 15.3766C44.563 15.6613 44.0358 15.2783 44.1855 14.8176L45.6183 10.4078C45.6852 10.2018 45.6119 9.9761 45.4367 9.84878L41.6854 7.12336C41.2936 6.83866 41.495 6.21885 41.9793 6.21885H46.6161C46.8327 6.21885 47.0247 6.07937 47.0916 5.87336L48.5245 1.46353Z" fill="#373AF5"/>
<path d="M68.5245 1.46353C68.6741 1.00287 69.3259 1.00287 69.4755 1.46353L70.9084 5.87336C70.9753 6.07937 71.1673 6.21885 71.3839 6.21885H76.0207C76.505 6.21885 76.7064 6.83865 76.3146 7.12336L72.5633 9.84878C72.3881 9.9761 72.3148 10.2018 72.3817 10.4078L73.8145 14.8176C73.9642 15.2783 73.437 15.6613 73.0451 15.3766L69.2939 12.6512C69.1186 12.5239 68.8814 12.5239 68.7061 12.6512L64.9549 15.3766C64.563 15.6613 64.0358 15.2783 64.1855 14.8176L65.6183 10.4078C65.6852 10.2018 65.6119 9.9761 65.4367 9.84878L61.6854 7.12336C61.2936 6.83866 61.495 6.21885 61.9793 6.21885H66.6161C66.8327 6.21885 67.0247 6.07937 67.0916 5.87336L68.5245 1.46353Z" fill="#373AF5"/>
<path d="M88.5245 1.46353C88.6741 1.00287 89.3259 1.00287 89.4755 1.46353L90.9084 5.87336C90.9753 6.07937 91.1673 6.21885 91.3839 6.21885H96.0207C96.505 6.21885 96.7064 6.83865 96.3146 7.12336L92.5633 9.84878C92.3881 9.9761 92.3148 10.2018 92.3817 10.4078L93.8145 14.8176C93.9642 15.2783 93.437 15.6613 93.0451 15.3766L89.2939 12.6512C89.1186 12.5239 88.8814 12.5239 88.7061 12.6512L84.9549 15.3766C84.563 15.6613 84.0358 15.2783 84.1855 14.8176L85.6183 10.4078C85.6852 10.2018 85.6119 9.9761 85.4367 9.84878L81.6854 7.12336C81.2936 6.83866 81.495 6.21885 81.9793 6.21885H86.6161C86.8327 6.21885 87.0247 6.07937 87.0916 5.87336L88.5245 1.46353Z" fill="#EBEBEB"/>
<path d="M91.0188 6.14276L89.4768 1.45312C89.3258 0.993846 88.6757 0.994993 88.5263 1.45479L87.0906 5.87336C87.0237 6.07937 86.8317 6.21885 86.6151 6.21885H81.9783C81.4939 6.21885 81.2925 6.83865 81.6844 7.12336L85.4356 9.84878C85.6109 9.9761 85.6842 10.2018 85.6173 10.4078L84.1844 14.8176C84.0347 15.2783 84.562 15.6613 84.9538 15.3766L88.7051 12.6512C88.8803 12.5239 89.1176 12.5239 89.2929 12.6512L91.0439 13.9234V6.29894C91.0439 6.24588 91.0354 6.19316 91.0188 6.14276Z" fill="#373AF5"/>
</svg>
