<svg width="22" height="22" viewBox="0 0 22 22" fill="none" xmlns="http://www.w3.org/2000/svg">
<path d="M10.9999 20.1668C16.0625 20.1668 20.1666 16.0628 20.1666 11.0002C20.1666 5.93755 16.0625 1.8335 10.9999 1.8335C5.93731 1.8335 1.83325 5.93755 1.83325 11.0002C1.83325 16.0628 5.93731 20.1668 10.9999 20.1668Z" fill="#EBEBEB"/>
<path d="M8.33252 8.25003C8.54803 7.6374 8.97341 7.1208 9.53331 6.79174C10.0932 6.46268 10.7515 6.34239 11.3916 6.45219C12.0317 6.56198 12.6123 6.89476 13.0305 7.3916C13.4487 7.88844 13.6777 8.51726 13.6767 9.1667C13.6767 11 10.9267 11.9167 10.9267 11.9167V13.75" stroke="#D1D1D4" stroke-linecap="round" stroke-linejoin="round"/>
<path d="M11 15.5835H11.01" stroke="#D1D1D4" stroke-linecap="round" stroke-linejoin="round"/>
</svg>
