<svg width="22" height="22" viewBox="0 0 22 22" fill="none" xmlns="http://www.w3.org/2000/svg">
<path d="M0 8C0 3.58172 3.58172 0 8 0H14C18.4183 0 22 3.58172 22 8V14C22 18.4183 18.4183 22 14 22H8C3.58172 22 0 18.4183 0 14V8Z" fill="#F7DF1E"/>
<path d="M5.7847 18.3853L7.4683 17.3664C7.79309 17.9423 8.08856 18.4295 8.79727 18.4295C9.47662 18.4295 9.90492 18.1638 9.90492 17.1301V10.1006H11.9724V17.1593C11.9724 19.3007 10.7172 20.2753 8.8859 20.2753C7.23202 20.2753 6.27199 19.4188 5.78467 18.3851" fill="black"/>
<path d="M13.0952 18.1633L14.7786 17.1886C15.2217 17.9123 15.7977 18.4439 16.8166 18.4439C17.6732 18.4439 18.2195 18.0156 18.2195 17.4249C18.2195 16.716 17.6584 16.4649 16.7132 16.0516L16.1965 15.8299C14.7048 15.195 13.7154 14.3976 13.7154 12.714C13.7154 11.1634 14.8968 9.98193 16.7428 9.98193C18.0572 9.98193 19.0023 10.4398 19.6815 11.636L18.0718 12.6697C17.7174 12.0347 17.3335 11.7837 16.7428 11.7837C16.1374 11.7837 15.7534 12.1677 15.7534 12.6697C15.7534 13.2899 16.1374 13.541 17.0233 13.925L17.5402 14.1465C19.2975 14.8997 20.287 15.6676 20.287 17.3953C20.287 19.2562 18.825 20.2751 16.861 20.2751C14.9412 20.2751 13.7006 19.3595 13.0953 18.1633" fill="black"/>
</svg>
